<mxfile host="www.draw.io" modified="2020-01-14T06:04:29.822Z" agent="Mozilla/5.0 (Windows NT 10.0; Win64; x64) AppleWebKit/537.36 (KHTML, like Gecko) Chrome/78.0.3904.108 Safari/537.36" etag="ZSu6e8uyeWCkc8G-T6Do" version="12.5.1" type="github">
  <diagram id="kbm905aHLV5Dr9nUJAch" name="Page-1">
    <mxGraphModel dx="2062" dy="1123" grid="1" gridSize="10" guides="1" tooltips="1" connect="1" arrows="1" fold="1" page="1" pageScale="1" pageWidth="827" pageHeight="1169" math="0" shadow="0">
      <root>
        <mxCell id="0"/>
        <mxCell id="1" parent="0"/>
        <mxCell id="ApbmC6vBIHDlImj3Rijn-1" value="" style="rounded=1;whiteSpace=wrap;html=1;" parent="1" vertex="1">
          <mxGeometry x="110" y="770" width="670" height="100" as="geometry"/>
        </mxCell>
        <mxCell id="ApbmC6vBIHDlImj3Rijn-2" value="Render.gl" style="text;html=1;strokeColor=none;fillColor=none;align=center;verticalAlign=middle;whiteSpace=wrap;rounded=0;" parent="1" vertex="1">
          <mxGeometry x="50" y="810" width="40" height="20" as="geometry"/>
        </mxCell>
        <mxCell id="Kp7RcIrqSu2gTxTqtwUE-1" value="" style="rounded=1;whiteSpace=wrap;html=1;" vertex="1" parent="1">
          <mxGeometry x="110" y="280" width="670" height="100" as="geometry"/>
        </mxCell>
        <mxCell id="Kp7RcIrqSu2gTxTqtwUE-2" value="Data.gl" style="text;html=1;strokeColor=none;fillColor=none;align=center;verticalAlign=middle;whiteSpace=wrap;rounded=0;" vertex="1" parent="1">
          <mxGeometry x="40" y="320" width="40" height="20" as="geometry"/>
        </mxCell>
      </root>
    </mxGraphModel>
  </diagram>
</mxfile>
